Coordinates
version=1
nRows=32
nColumns=22
inDegrees=yes

Units are S.I. units (second, meters, Newtons, ...)
If the header above contains a line with 'inDegrees', this indicates whether rotational values are in degrees (yes) or radians (no).

endheader
time	pelvis_tilt	pelvis_list	pelvis_rotation	pelvis_tx	pelvis_ty	pelvis_tz	hip_flexion_r	hip_adduction_r	hip_rotation_r	knee_angle_r	ankle_angle_r	subtalar_angle_r	hip_flexion_l	hip_adduction_l	hip_rotation_l	knee_angle_l	ankle_angle_l	subtalar_angle_l	lumbar_extension	lumbar_bending	lumbar_rotation
      0.01000000	    -11.77547389	     -3.13178605	     -2.89620741	     -1.04139899	      0.97972631	     -0.17242270	     17.78344570	      4.39349417	     -2.33778155	    -16.77158672	     15.09464130	    -11.23907757	     19.03394092	     -2.58118835	     -5.65531892	    -18.36254170	     19.38569069	     -0.29342809	      3.80151554	      4.05806520	      3.51755253
      0.02000000	    -11.77543873	     -3.13428658	     -2.88172670	     -1.04139268	      0.97971872	     -0.17248847	     17.78226119	      4.38989818	     -2.33654920	    -16.77201512	     15.09182710	    -11.23928736	     19.03662819	     -2.57780127	     -5.65646221	    -18.36256945	     19.38776138	     -0.29500825	      3.80312226	      4.06176310	      3.52290789
      0.03000000	    -11.81214228	     -3.12503313	     -2.85233008	     -1.04142159	      0.97964633	     -0.17259137	     17.82885154	      4.36645953	     -2.38046791	    -16.78253725	     15.07049453	    -11.24968706	     19.08597888	     -2.55204267	     -5.60056739	    -18.36917947	     19.40176233	     -0.33682225	      3.84844703	      4.05080335	      3.52919713
      0.04000000	    -11.86200158	     -3.10470056	     -2.85029386	     -1.04147131	      0.97954852	     -0.17262015	     17.89804418	      4.34573839	     -2.36901559	    -16.80790391	     15.11105550	    -11.25937603	     19.14786236	     -2.53071279	     -5.60312094	    -18.37645649	     19.36995742	     -0.36263349	      3.90702074	      4.02395483	      3.56637368
      0.05000000	    -11.87360985	     -3.09600765	     -2.84117972	     -1.04148647	      0.97951917	     -0.17265653	     17.90916206	      4.33294144	     -2.37375566	    -16.80315136	     15.10481415	    -11.25790134	     19.16594666	     -2.51756043	     -5.59576589	    -18.38243004	     19.37687217	     -0.36497306	      3.92151285	      4.00753250	      3.60257477
      0.06000000	    -11.95182127	     -3.04773075	     -2.86042871	     -1.04155336	      0.97937882	     -0.17265028	     18.02808409	      4.29032914	     -2.33768315	    -16.86152746	     15.12612235	    -11.25963880	     19.24415692	     -2.47237587	     -5.61067622	    -18.36520792	     19.35460304	     -0.37429966	      4.01536118	      3.95097298	      3.65476465
      0.07000000	    -11.96510235	     -3.04257478	     -2.85183259	     -1.04156094	      0.97934876	     -0.17267476	     18.03662447	      4.28280150	     -2.34138009	    -16.85011609	     15.13216112	    -11.25931245	     19.26694601	     -2.46467275	     -5.60641803	    -18.37835870	     19.35230145	     -0.37542195	      4.03275584	      3.93888751	      3.69112867
      0.08000000	    -12.04604629	     -3.00374944	     -2.86447871	     -1.04160398	      0.97921092	     -0.17266801	     18.14877088	      4.25005516	     -2.30435049	    -16.89414458	     15.15126056	    -11.26094615	     19.34889345	     -2.42852154	     -5.61444358	    -18.36500059	     19.33254518	     -0.37870168	      4.13385642	      3.89285724	      3.73454753
      0.09000000	    -12.05411793	     -3.00438065	     -2.84864559	     -1.04157230	      0.97919635	     -0.17269236	     18.14679252	      4.24685266	     -2.31426347	    -16.87948960	     15.15497162	    -11.26076957	     19.36190664	     -2.42581485	     -5.61173056	    -18.37325108	     19.33182906	     -0.37932115	      4.15012981	      3.88371495	      3.75763849
      0.10000000	    -12.07115910	     -3.00156019	     -2.83246443	     -1.04149844	      0.97917301	     -0.17272795	     18.15172388	      4.23955632	     -2.32429667	    -16.86512285	     15.15847499	    -11.26172416	     19.37546756	     -2.41639120	     -5.59671617	    -18.36991163	     19.32930266	     -0.37904515	      4.18692324	      3.87472073	      3.77297967
      0.11000000	    -12.07218488	     -3.00572336	     -2.81436688	     -1.04144077	      0.97917402	     -0.17275157	     18.14830371	      4.24024372	     -2.32336482	    -16.86730059	     15.15833937	    -11.26185341	     19.37456882	     -2.41698280	     -5.59703114	    -18.36845036	     19.32907848	     -0.37912383	      4.19721324	      3.86907239	      3.77850639
      0.12000000	    -12.08878353	     -3.00562557	     -2.78580286	     -1.04134263	      0.97916020	     -0.17279214	     18.13922341	      4.23229080	     -2.34951876	    -16.82870135	     15.16308861	    -11.26354279	     19.38453201	     -2.40734786	     -5.57443454	    -18.35747924	     19.32793930	     -0.37797591	      4.23351248	      3.85427873	      3.79400559
      0.13000000	    -12.08847127	     -3.00915709	     -2.77210107	     -1.04125609	      0.97915913	     -0.17281518	     18.13382326	      4.23269236	     -2.34974714	    -16.83295470	     15.16245030	    -11.26389271	     19.38063351	     -2.40692467	     -5.57154905	    -18.35890113	     19.32728152	     -0.37784933	      4.24796865	      3.85029281	      3.79528673
      0.14000000	    -12.12375242	     -3.01052320	     -2.70960801	     -1.04117923	      0.97910833	     -0.17291626	     18.15256544	      4.21426183	     -2.41715818	    -16.80883156	     15.16233220	    -11.27678099	     19.41378128	     -2.38125790	     -5.46937290	    -18.34218956	     19.31234176	     -0.37230456	      4.30740004	      3.83692989	      3.74036999
      0.15000000	    -12.12365286	     -3.01419926	     -2.69948537	     -1.04110120	      0.97910457	     -0.17292263	     18.14822493	      4.21647840	     -2.41832344	    -16.81225289	     15.16258094	    -11.27713929	     19.41145519	     -2.38286538	     -5.46977312	    -18.34564025	     19.31246925	     -0.37254276	      4.31783403	      3.82963394	      3.74490982
      0.16000000	    -12.12455280	     -3.01753433	     -2.68960878	     -1.04102097	      0.97909869	     -0.17292391	     18.14395191	      4.21847987	     -2.42127891	    -16.81350855	     15.16356099	    -11.27763220	     19.40993422	     -2.38442135	     -5.46864091	    -18.34815995	     19.31317717	     -0.37259970	      4.32875075	      3.81959097	      3.75025187
      0.17000000	    -12.13559925	     -3.01393958	     -2.67559981	     -1.04092973	      0.97907841	     -0.17294299	     18.14290554	      4.20995314	     -2.44494125	    -16.79850774	     15.17416669	    -11.28188446	     19.41867872	     -2.37476720	     -5.45284819	    -18.34937645	     19.31976140	     -0.37112076	      4.35247096	      3.80019089	      3.76809640
      0.18000000	    -12.13534733	     -3.01667181	     -2.67174485	     -1.04082695	      0.97907289	     -0.17294357	     18.13891743	      4.21222398	     -2.44484114	    -16.80512743	     15.17467827	    -11.28240512	     19.41408750	     -2.37593345	     -5.45030963	    -18.35279201	     19.31987049	     -0.37090421	      4.36311031	      3.79226554	      3.76810168
      0.19000000	    -12.13525424	     -3.01908166	     -2.66885503	     -1.04071908	      0.97906661	     -0.17294072	     18.13446047	      4.21461060	     -2.44536367	    -16.81040101	     15.17605288	    -11.28300739	     19.40976396	     -2.37681229	     -5.44668839	    -18.35635496	     19.32066789	     -0.37062054	      4.37292462	      3.78273504	      3.76970642
      0.20000000	    -12.13473250	     -3.02108787	     -2.66737138	     -1.04059710	      0.97905979	     -0.17293866	     18.12855816	      4.21652911	     -2.44593713	    -16.81535517	     15.17828323	    -11.28371799	     19.40475661	     -2.37718226	     -5.44181207	    -18.36158480	     19.32219806	     -0.37034957	      4.38330919	      3.77278630	      3.77277619
      0.21000000	    -12.13214270	     -3.01499940	     -2.66421299	     -1.04047951	      0.97904989	     -0.17294902	     18.11924450	      4.20839237	     -2.44755558	    -16.81637460	     15.20076940	    -11.28978275	     19.40111064	     -2.36568797	     -5.41615435	    -18.37379577	     19.33944843	     -0.36940520	      4.38818077	      3.75094001	      3.79676026
      0.22000000	    -12.13062500	     -3.01675630	     -2.66643565	     -1.04034489	      0.97904312	     -0.17295632	     18.11277492	      4.21038643	     -2.44643964	    -16.82318345	     15.20228414	    -11.29037227	     19.39504542	     -2.36574516	     -5.41384010	    -18.38101695	     19.34054021	     -0.36967732	      4.39760330	      3.74449932	      3.79682224
      0.23000000	    -12.12114814	     -3.00966604	     -2.67476254	     -1.04025189	      0.97903350	     -0.17295331	     18.10554164	      4.20508685	     -2.42920933	    -16.83925528	     15.22289676	    -11.29621474	     19.39485592	     -2.35909889	     -5.40746618	    -18.41441843	     19.36127817	     -0.37487119	      4.38773381	      3.72430041	      3.81660192
      0.24000000	    -12.11936691	     -3.00994213	     -2.68172427	     -1.04011841	      0.97902459	     -0.17296802	     18.09977628	      4.20584494	     -2.42644793	    -16.84689199	     15.22476255	    -11.29692514	     19.38944495	     -2.35837007	     -5.40705657	    -18.42449047	     19.36321164	     -0.37591944	      4.39710786	      3.71914050	      3.81784116
      0.25000000	    -12.12403344	     -2.98107109	     -2.73500581	     -1.04005772	      0.97897730	     -0.17290749	     18.12925075	      4.19263797	     -2.35446772	    -16.89852555	     15.27431502	    -11.31299656	     19.40392051	     -2.34752450	     -5.47926573	    -18.46256925	     19.40790026	     -0.40294233	      4.39835606	      3.68163679	      3.88049951
      0.26000000	    -12.14491624	     -2.95902077	     -2.77444160	     -1.03998612	      0.97892257	     -0.17287240	     18.16541277	      4.18250340	     -2.29768452	    -16.93066403	     15.28204118	    -11.32024506	     19.43218882	     -2.33704839	     -5.51708270	    -18.49131768	     19.40934704	     -0.42300861	      4.42426056	      3.65224244	      3.92277678
      0.27000000	    -12.14498369	     -2.95824643	     -2.78567226	     -1.03985367	      0.97891156	     -0.17288922	     18.16055421	      4.18186996	     -2.29642329	    -16.93547182	     15.28251677	    -11.32041444	     19.42934971	     -2.33594812	     -5.51390019	    -18.50366239	     19.40992332	     -0.42369380	      4.43334734	      3.64774380	      3.92338360
      0.28000000	    -12.17814968	     -2.93333721	     -2.83240854	     -1.03978655	      0.97882514	     -0.17284446	     18.21446353	      4.17148513	     -2.22904626	    -16.97687805	     15.31581551	    -11.32691190	     19.47659906	     -2.32743913	     -5.56988465	    -18.54628837	     19.44331427	     -0.44503987	      4.47068115	      3.61573371	      3.97014073
      0.29000000	    -12.17973303	     -2.93422190	     -2.84129893	     -1.03963417	      0.97881449	     -0.17286624	     18.20898367	      4.17194745	     -2.22865180	    -16.98099904	     15.31531394	    -11.32678116	     19.47221136	     -2.32729235	     -5.56721176	    -18.55561998	     19.44264261	     -0.44541291	      4.48113192	      3.61096906	      3.96945834
      0.30000000	    -12.18264535	     -2.93473912	     -2.85166397	     -1.03948216	      0.97880085	     -0.17288790	     18.20476035	      4.17242603	     -2.22681648	    -16.98421843	     15.31571340	    -11.32668097	     19.46844973	     -2.32783292	     -5.56589823	    -18.56510916	     19.44360283	     -0.44608950	      4.49052258	      3.60452991	      3.96827488
      0.31000000	    -12.22740980	     -2.92090519	     -2.89757332	     -1.03936507	      0.97870950	     -0.17284767	     18.25729093	      4.17440729	     -2.15795776	    -17.00597245	     15.33736616	    -11.32553993	     19.51193264	     -2.33113815	     -5.62656507	    -18.58414768	     19.47254505	     -0.46414287	      4.54434165	      3.58430254	      4.00723009
      0.32000000	    -12.23226431	     -2.92303918	     -2.90486521	     -1.03921129	      0.97869575	     -0.17287914	     18.25384363	      4.17549149	     -2.15865444	    -17.00755790	     15.33717874	    -11.32529935	     19.50758328	     -2.33238381	     -5.62647885	    -18.58865313	     19.47294775	     -0.46442850	      4.55115184	      3.57783119	      4.00307752
